<svg width="523" height="431" viewBox="0 0 523 431" fill="none" xmlns="http://www.w3.org/2000/svg">
<g clip-path="url(#clip0_372_18409)">
<mask id="mask0_372_18409" style="mask-type:luminance" maskUnits="userSpaceOnUse" x="0" y="0" width="523" height="431">
<path d="M523 0H0V431H523V0Z" fill="white"/>
</mask>
<g mask="url(#mask0_372_18409)">
<mask id="mask1_372_18409" style="mask-type:luminance" maskUnits="userSpaceOnUse" x="0" y="0" width="523" height="431">
<path d="M523 0H0V431H523V0Z" fill="white"/>
</mask>
<g mask="url(#mask1_372_18409)">
<path d="M267.536 370.954C266.35 363.869 263.728 357.553 259.732 352.192C255.303 346.11 249.624 341.604 242.848 338.793C236.006 335.96 228.202 334.527 219.654 334.527C205.293 334.527 193.465 338.765 184.503 347.124C175.553 355.46 171.015 367.668 171.015 383.405C171.015 400.164 176.02 412.406 185.896 419.779C195.867 427.227 207.544 431.004 220.608 431.004C236.42 431.004 248.866 426.548 257.598 417.767C262.889 412.565 266.652 403.726 267.726 398.429H242.985C242.644 399.094 242.289 399.882 241.917 400.701C240.687 403.422 239.158 406.805 236.742 409.001C232.724 412.068 227.565 413.588 221.332 413.588C215.493 413.588 210.41 412.353 206.224 409.92C199.287 405.97 195.551 399.036 195.126 389.311L195.073 388.101H268.406C268.487 380.709 268.196 374.946 267.536 370.954ZM196.958 373.189C197.911 367.121 200.246 362.313 203.965 358.768C207.681 355.22 212.913 353.449 219.665 353.449C225.87 353.449 231.071 355.122 235.262 358.466C239.457 361.816 241.792 366.724 242.27 373.192H196.958V373.189Z" fill="#E7233B"/>
</g>
<mask id="mask2_372_18409" style="mask-type:luminance" maskUnits="userSpaceOnUse" x="0" y="0" width="523" height="431">
<path d="M523 0H0V431H523V0Z" fill="white"/>
</mask>
<g mask="url(#mask2_372_18409)">
<path d="M441.276 333.021C414.195 333.021 392.245 354.954 392.245 382.008C392.245 409.068 414.198 431.001 441.276 431.001C468.36 431.001 490.31 409.065 490.31 382.008C490.313 354.952 468.36 333.021 441.276 333.021ZM441.276 405.654C428 405.654 417.235 394.898 417.235 381.631C417.235 368.367 428 357.611 441.276 357.611C454.555 357.611 465.32 368.367 465.32 381.631C465.32 394.898 454.555 405.654 441.276 405.654Z" fill="#E7233B"/>
</g>
<mask id="mask3_372_18409" style="mask-type:luminance" maskUnits="userSpaceOnUse" x="0" y="0" width="523" height="431">
<path d="M523 0H0V431H523V0Z" fill="white"/>
</mask>
<g mask="url(#mask3_372_18409)">
<path d="M304.269 402.359C304.711 411.671 324.849 408.871 324.849 408.871V430.477C287.453 433.576 281.916 421.856 281.916 421.856C276.092 417.47 275.977 401.842 275.977 389.402V347.978H259.466V329.487H276.128L276.159 299.371H304.979V329.126H324.846V347.978H304.026V392.827C304.026 392.827 304.015 396.965 304.269 402.359Z" fill="#E7233B"/>
</g>
<mask id="mask4_372_18409" style="mask-type:luminance" maskUnits="userSpaceOnUse" x="0" y="0" width="523" height="431">
<path d="M523 0H0V431H523V0Z" fill="white"/>
</mask>
<g mask="url(#mask4_372_18409)">
<path d="M360.254 380.5V431.001H332.43V329.826H359.293L359.139 347.384C359.139 347.384 364.863 325.473 397.298 328.348V353.67C358.266 349.066 360.254 380.5 360.254 380.5Z" fill="#E7233B"/>
</g>
<mask id="mask5_372_18409" style="mask-type:luminance" maskUnits="userSpaceOnUse" x="0" y="0" width="523" height="431">
<path d="M523 0H0V431H523V0Z" fill="white"/>
</mask>
<g mask="url(#mask5_372_18409)">
<path d="M130.758 300.357H163.448V431H130.758V350.124L101.244 397.948H96.2866L65.3776 350.124V368.02V431H32.6875V368.02V300.357H65.3776L98.0677 354.887L130.758 300.357Z" fill="#E7233B"/>
</g>
<mask id="mask6_372_18409" style="mask-type:luminance" maskUnits="userSpaceOnUse" x="0" y="0" width="523" height="431">
<path d="M523 0H0V431H523V0Z" fill="white"/>
</mask>
<g mask="url(#mask6_372_18409)">
<path d="M0 137.076L59.6117 194.743H185.459L322.659 61.4465L262.103 0L127.741 137.076H0Z" fill="#E7233B"/>
</g>
<mask id="mask7_372_18409" style="mask-type:luminance" maskUnits="userSpaceOnUse" x="0" y="0" width="523" height="431">
<path d="M523 0H0V431H523V0Z" fill="white"/>
</mask>
<g mask="url(#mask7_372_18409)">
<path d="M523 137.077L463.391 79.4102H337.541L200.341 212.707L260.9 274.153L395.26 137.077H523Z" fill="#E7233B"/>
</g>
</g>
</g>
<defs>
<clipPath id="clip0_372_18409">
<rect width="523" height="431" fill="white"/>
</clipPath>
</defs>
</svg>
